<svg width="305" height="100" viewBox="0 0 305 100" fill="none" xmlns="http://www.w3.org/2000/svg">
<path d="M85.9151 43.7928L85.9938 43.4062H85.599H66.5712L71.2886 20.1088L71.3667 19.7223H70.9725H46.3922V0.322581V0H46.0696H39.9239H39.6013V0.322581V19.7223H15.0213H14.6269L14.7052 20.1088L19.4228 43.4062H0.394445H0L0.0782839 43.7928L6.11844 73.6226L6.17077 73.8806H6.43457H31.089V99.6774V100H31.4116H37.5573H37.8799V99.6774V73.8806H48.1135V99.6774V100H48.4361H54.5817H54.9043V99.6774V73.8806H79.559H79.8228L79.8751 73.6226L85.9151 43.7928ZM46.3922 50.197H58.6626L56.9522 67.0903H46.3922V50.197ZM39.6013 67.0903H29.0413L27.3309 50.197H39.6013V67.0903ZM22.9304 26.513H63.0631L59.6426 43.4062H26.351L22.9304 26.513ZM11.7245 67.0903L8.3038 50.197H20.5054L22.2158 67.0903H11.7245ZM77.6899 50.197L74.2693 67.0903H63.7777L65.488 50.197H77.6899Z" fill="#1A528D"/>
<path d="M120.405 2.09678V46.129H112.875V2.09678H120.405ZM134.226 2.09678V8.14517H99.1746V2.09678H134.226ZM174.296 22.9032V25.3226C174.296 28.6492 173.862 31.633 172.995 34.2742C172.129 36.9154 170.889 39.1633 169.276 41.0181C167.683 42.873 165.767 44.2943 163.529 45.2823C161.292 46.25 158.812 46.7339 156.09 46.7339C153.389 46.7339 150.918 46.25 148.681 45.2823C146.463 44.2943 144.538 42.873 142.905 41.0181C141.271 39.1633 140.002 36.9154 139.094 34.2742C138.207 31.633 137.764 28.6492 137.764 25.3226V22.9032C137.764 19.5767 138.207 16.6028 139.094 13.9819C139.981 11.3407 141.231 9.09272 142.844 7.23794C144.477 5.36291 146.402 3.94154 148.62 2.9738C150.858 1.98589 153.328 1.49194 156.029 1.49194C158.751 1.49194 161.231 1.98589 163.469 2.9738C165.707 3.94154 167.633 5.36291 169.246 7.23794C170.858 9.09272 172.098 11.3407 172.965 13.9819C173.852 16.6028 174.296 19.5767 174.296 22.9032ZM166.705 25.3226V22.8427C166.705 20.3831 166.463 18.2157 165.979 16.3407C165.516 14.4456 164.82 12.8629 163.893 11.5928C162.986 10.3024 161.866 9.33465 160.536 8.68956C159.205 8.0242 157.703 7.69156 156.029 7.69156C154.356 7.69156 152.864 8.0242 151.554 8.68956C150.244 9.33465 149.124 10.3024 148.197 11.5928C147.29 12.8629 146.594 14.4456 146.11 16.3407C145.626 18.2157 145.384 20.3831 145.384 22.8427V25.3226C145.384 27.7823 145.626 29.9597 146.11 31.8548C146.594 33.75 147.3 35.3528 148.227 36.6633C149.175 37.9536 150.304 38.9315 151.615 39.5968C152.925 40.2419 154.417 40.5645 156.09 40.5645C157.784 40.5645 159.286 40.2419 160.596 39.5968C161.907 38.9315 163.015 37.9536 163.923 36.6633C164.83 35.3528 165.516 33.75 165.979 31.8548C166.463 29.9597 166.705 27.7823 166.705 25.3226ZM192.925 36.2399L201.695 2.09678H206.292L205.778 10.8972L196.402 46.129H191.624L192.925 36.2399ZM186.362 2.09678L193.469 35.9678L194.104 46.129H189.024L178.832 2.09678H186.362ZM216.241 35.877L223.258 2.09678H230.818L220.626 46.129H215.546L216.241 35.877ZM208.076 2.09678L216.755 36.3307L218.026 46.129H213.247L204.024 10.8972L203.54 2.09678H208.076ZM265.264 40.1109V46.129H241.886V40.1109H265.264ZM244.034 2.09678V46.129H236.443V2.09678H244.034ZM262.209 20.4839V26.4113H241.886V20.4839H262.209ZM265.112 2.09678V8.14517H241.886V2.09678H265.112ZM271.463 2.09678H287.038C290.384 2.09678 293.237 2.60081 295.596 3.60888C297.955 4.61694 299.76 6.10888 301.009 8.08465C302.28 10.0403 302.915 12.4597 302.915 15.3427C302.915 17.5403 302.511 19.4758 301.705 21.1492C300.898 22.8226 299.76 24.2339 298.287 25.3831C296.816 26.5121 295.062 27.3891 293.026 28.0141L290.727 29.133H276.725L276.665 23.1149H287.158C288.973 23.1149 290.486 22.7923 291.695 22.1472C292.905 21.502 293.812 20.625 294.416 19.5161C295.042 18.3871 295.355 17.1169 295.355 15.7057C295.355 14.1734 295.052 12.8427 294.447 11.7137C293.862 10.5645 292.955 9.68749 291.725 9.08265C290.495 8.45768 288.933 8.14517 287.038 8.14517H279.054V46.129H271.463V2.09678ZM296.594 46.129L286.251 26.3508L294.205 26.3206L304.699 45.7359V46.129H296.594ZM125.455 84.4658C125.455 83.5587 125.314 82.7523 125.032 82.0465C124.769 81.3407 124.296 80.6955 123.61 80.111C122.925 79.5265 121.957 78.9619 120.707 78.4174C119.477 77.8529 117.905 77.2781 115.989 76.6936C113.893 76.0484 111.957 75.3329 110.183 74.5465C108.429 73.74 106.896 72.8123 105.586 71.7639C104.276 70.6955 103.258 69.4761 102.531 68.1045C101.806 66.7136 101.443 65.111 101.443 63.2964C101.443 61.502 101.816 59.869 102.562 58.3972C103.328 56.9254 104.407 55.6552 105.798 54.5867C107.209 53.498 108.873 52.6613 110.787 52.0767C112.703 51.4718 114.82 51.1694 117.138 51.1694C120.405 51.1694 123.217 51.7742 125.576 52.9839C127.955 54.1936 129.78 55.8165 131.05 57.8528C132.34 59.8891 132.986 62.1371 132.986 64.5968H125.455C125.455 63.1452 125.142 61.8649 124.518 60.7561C123.913 59.627 122.986 58.7399 121.735 58.0948C120.506 57.4496 118.943 57.127 117.047 57.127C115.253 57.127 113.762 57.3992 112.572 57.9436C111.382 58.4879 110.495 59.2238 109.911 60.1512C109.326 61.0787 109.034 62.127 109.034 63.2964C109.034 64.123 109.226 64.8787 109.608 65.5645C109.991 66.2297 110.576 66.8548 111.362 67.4394C112.149 68.0039 113.136 68.5381 114.326 69.0426C115.516 69.5465 116.916 70.0303 118.529 70.4942C120.969 71.22 123.097 72.0265 124.911 72.9136C126.725 73.78 128.237 74.7684 129.447 75.8768C130.657 76.9858 131.564 78.2458 132.169 79.6574C132.774 81.0484 133.076 82.631 133.076 84.4052C133.076 86.26 132.703 87.9335 131.957 89.4252C131.211 90.8974 130.142 92.1574 128.751 93.2058C127.38 94.2336 125.727 95.0303 123.792 95.5948C121.877 96.1394 119.739 96.4116 117.38 96.4116C115.264 96.4116 113.176 96.129 111.12 95.5645C109.084 95 107.229 94.1432 105.556 92.9942C103.882 91.8245 102.552 90.3729 101.564 88.6394C100.576 86.8852 100.082 84.8387 100.082 82.5H107.673C107.673 83.9316 107.915 85.151 108.398 86.1594C108.903 87.1671 109.598 87.9942 110.486 88.6394C111.373 89.2639 112.4 89.7277 113.57 90.0303C114.76 90.3329 116.029 90.4839 117.38 90.4839C119.155 90.4839 120.636 90.2316 121.826 89.7278C123.036 89.2239 123.943 88.5181 124.548 87.611C125.153 86.7039 125.455 85.6555 125.455 84.4658ZM157.905 51.7742V95.8065H150.375V51.7742H157.905ZM171.725 51.7742V57.8226H136.675V51.7742H171.725ZM177.531 51.7742H193.106C196.453 51.7742 199.306 52.2782 201.665 53.2863C204.024 54.2943 205.828 55.7863 207.078 57.7621C208.348 59.7177 208.983 62.1371 208.983 65.02C208.983 67.2181 208.58 69.1536 207.774 70.8265C206.967 72.5 205.828 73.911 204.356 75.0607C202.884 76.1897 201.131 77.0665 199.094 77.6916L196.796 78.8103H182.794L182.733 72.7923H193.227C195.042 72.7923 196.554 72.4697 197.764 71.8245C198.973 71.1794 199.88 70.3026 200.486 69.1936C201.11 68.0645 201.423 66.7942 201.423 65.3832C201.423 63.8508 201.12 62.5201 200.516 61.3911C199.931 60.2419 199.024 59.3649 197.794 58.7601C196.564 58.1351 195.002 57.8226 193.106 57.8226H185.122V95.8065H177.531V51.7742ZM202.663 95.8065L192.32 76.0284L200.273 75.9981L210.767 95.4136V95.8065H202.663ZM224.649 51.7742V95.8065H217.058V51.7742H224.649ZM250.808 79.3852H239.346V73.3671H250.808C252.804 73.3671 254.416 73.0445 255.647 72.3994C256.876 71.7542 257.774 70.8671 258.338 69.7381C258.923 68.5884 259.215 67.2781 259.215 65.8065C259.215 64.4155 258.923 63.1149 258.338 61.9052C257.774 60.6754 256.876 59.6875 255.647 58.9416C254.416 58.1956 252.804 57.8226 250.808 57.8226H241.675V95.8065H234.084V51.7742H250.808C254.215 51.7742 257.108 52.379 259.487 53.5887C261.886 54.7782 263.711 56.4315 264.961 58.5484C266.211 60.6452 266.836 63.0444 266.836 65.7458C266.836 68.5884 266.211 71.0284 264.961 73.0645C263.711 75.1006 261.886 76.6632 259.487 77.7523C257.108 78.8407 254.215 79.3852 250.808 79.3852ZM296.806 84.4658C296.806 83.5587 296.665 82.7523 296.382 82.0465C296.12 81.3407 295.647 80.6955 294.961 80.111C294.276 79.5265 293.308 78.9619 292.058 78.4174C290.828 77.8529 289.255 77.2781 287.34 76.6936C285.244 76.0484 283.308 75.3329 281.534 74.5465C279.78 73.74 278.247 72.8123 276.937 71.7639C275.626 70.6955 274.608 69.4761 273.882 68.1045C273.156 66.7136 272.794 65.111 272.794 63.2964C272.794 61.502 273.167 59.869 273.913 58.3972C274.679 56.9254 275.757 55.6552 277.149 54.5867C278.56 53.498 280.223 52.6613 282.138 52.0767C284.054 51.4718 286.171 51.1694 288.489 51.1694C291.755 51.1694 294.568 51.7742 296.927 52.9839C299.306 54.1936 301.131 55.8165 302.4 57.8528C303.691 59.8891 304.336 62.1371 304.336 64.5968H296.806C296.806 63.1452 296.493 61.8649 295.868 60.7561C295.264 59.627 294.336 58.7399 293.086 58.0948C291.856 57.4496 290.294 57.127 288.398 57.127C286.604 57.127 285.112 57.3992 283.923 57.9436C282.733 58.4879 281.846 59.2238 281.262 60.1512C280.677 61.0787 280.384 62.127 280.384 63.2964C280.384 64.123 280.576 64.8787 280.959 65.5645C281.342 66.2297 281.927 66.8548 282.713 67.4394C283.499 68.0039 284.487 68.5381 285.677 69.0426C286.866 69.5465 288.267 70.0303 289.88 70.4942C292.32 71.22 294.447 72.0265 296.262 72.9136C298.076 73.78 299.588 74.7684 300.798 75.8768C302.007 76.9858 302.915 78.2458 303.52 79.6574C304.124 81.0484 304.427 82.631 304.427 84.4052C304.427 86.26 304.054 87.9335 303.308 89.4252C302.562 90.8974 301.493 92.1574 300.102 93.2058C298.731 94.2336 297.078 95.0303 295.142 95.5948C293.227 96.1394 291.09 96.4116 288.731 96.4116C286.615 96.4116 284.527 96.129 282.471 95.5645C280.435 95 278.58 94.1432 276.907 92.9942C275.233 91.8245 273.903 90.3729 272.915 88.6394C271.927 86.8852 271.433 84.8387 271.433 82.5H279.024C279.024 83.9316 279.266 85.151 279.749 86.1594C280.253 87.1671 280.949 87.9942 281.836 88.6394C282.723 89.2639 283.751 89.7277 284.921 90.0303C286.11 90.3329 287.38 90.4839 288.731 90.4839C290.506 90.4839 291.987 90.2316 293.176 89.7278C294.387 89.2239 295.294 88.5181 295.898 87.611C296.504 86.7039 296.806 85.6555 296.806 84.4658Z" fill="#1A528D"/>
</svg>
